<?xml version="1.0" encoding="UTF-8"?>
<svg width="1080px" height="1080px" viewBox="0 0 1080 1080" version="1.1" xmlns="http://www.w3.org/2000/svg" xmlns:xlink="http://www.w3.org/1999/xlink">
    <!-- Generator: Sketch 53.2 (72643) - https://sketchapp.com -->
    <title>999-dark-bg</title>
    <desc>Created with Sketch.</desc>
    <g id="999-dark-bg" stroke="none" stroke-width="1" fill="none" fill-rule="evenodd">
        <g id="999" transform="translate(-53.000000, -18.000000)" fill="#F6FF00" stroke="#000000">
            <g id="Group-00x">
                <path d="M591.246504,850.113027 L471.830715,643.969502 L422.119022,729.885485 L591.246504,1022.19737 L591.246504,850.113027 Z" id="Path-001"></path>
                <path d="M470.13632,641.182639 L354.08286,439.411516 L254.294748,439.411516 L420.638427,727.192909 L470.13632,641.182639 Z" id="Path-002"></path>
                <path d="M289.574409,330.219272 L171.861835,125.934652 L122.432663,211.462939 L289.752474,500.101822 L289.574409,330.219272 Z" id="Path-003" transform="translate(206.054688, 313.449500) scale(-1, 1) rotate(240.000000) translate(-206.054688, -313.449500) "></path>
                <path d="M87.927252,145.001568 L234.88061,229.078456 L469.807299,229.078456 L422.035942,144.944248 L87.927252,145.001568 Z" id="Path-004"></path>
                <path d="M425.289005,144.930443 L474.432429,228.546224 L709.888156,229.194581 L759.607262,144.909179 L425.289005,144.930443 Z" id="Path-005"></path>
                <path d="M976.223648,184.310218 L858.092177,-20.0950322 L809.9924,64.2541394 L976.302583,352.023977 L976.223648,184.310218 Z" id="Path-006" transform="translate(893.109665, 166.395302) scale(1, -1) rotate(300.000000) translate(-893.109665, -166.395302) "></path>
                <path d="M1062.69854,327.118859 L945.326748,124.145905 L894.844697,211.496008 L1062.50061,501.274203 L1062.69854,327.118859 Z" id="Path-007" transform="translate(978.732909, 313.140026) rotate(240.000000) translate(-978.732909, -313.140026) "></path>
                <path d="M713.986201,639.497095 L764.715969,727.140442 L931.275889,439.323456 L829.68663,439.435336 L713.986201,639.497095 Z" id="Path-008"></path>
                <path d="M763.11621,849.000247 L644.78705,642.105439 L594.04308,730.371616 L763.11621,1022.94303 L763.11621,849.000247 Z" id="Path-009" transform="translate(678.541090, 832.953920) scale(-1, 1) translate(-678.541090, -832.953920) "></path>
            </g>
            <g id="Group-0x0" transform="translate(239.000000, 232.000000)">
                <path d="M353.002209,457.727123 L279.964293,331.405504 L235.566325,408.657667 L353.002209,611.820321 L353.002209,457.727123 Z" id="Path-010"></path>
                <path d="M278.550857,328.689317 L208.647317,207.890339 L119.840587,207.890339 L233.791422,405.73856 L278.550857,328.689317 Z" id="Path-020"></path>
                <path d="M206.98876,205.031006 L135.084051,80.8845932 L1.79119773,4.52451076 L118.215603,205.860089 L206.98876,205.031006 Z" id="Path-030"></path>
                <path d="M5.31827171,1.96665581 L136.377754,78.3218205 L279.400533,78.3168636 L234.386001,1.09532759 L5.31827171,1.96665581 Z" id="Path-040"></path>
                <path d="M282.999895,78.2383883 L425.22318,78.1922935 L469.755622,1.26082598 L238.194101,1.26082598 L282.999895,78.2383883 Z" id="Path-050"></path>
                <path d="M428.665815,78.2115695 L572.356455,78.0663654 L704.779,1.44163134 L473.229925,1.44163134 L428.665815,78.2115695 Z" id="Path-060"></path>
                <path d="M573.590252,80.6407791 L501.540622,205.167484 L589.693009,204.961576 L705.801298,5.32625291 L573.590252,80.6407791 Z" id="Path-070"></path>
                <path d="M430.1681,328.686916 L474.031537,404.904118 L588.052865,207.870628 L499.973228,207.775524 L430.1681,328.686916 Z" id="Path-080"></path>
                <path d="M472.554436,457.459543 L400.625224,331.447434 L356.539118,407.748524 L472.554436,608.266661 L472.554436,457.459543 Z" id="Path-090" transform="translate(414.507997, 470.286353) scale(-1, 1) translate(-414.507997, -470.286353) "></path>
            </g>
            <g id="Group-x00" transform="translate(340.000000, 251.000000)">
                <path d="M250.236096,282.276893 L222.623347,234.692756 L179.300326,310.071068 L250.236096,432.271364 L250.236096,282.276893 Z" id="Path-100"></path>
                <path d="M107.975255,191.502819 L151.867004,267.428859 L200.683005,267.448044 L244.415281,191.777245 L107.975255,191.502819 Z" id="Path-200" transform="translate(176.194202, 229.474615) rotate(240.000000) translate(-176.194202, -229.474615) "></path>
                <path d="M140.284157,91.5697922 L113.472845,45.2833937 L69.8610273,120.74576 L140.065035,242.422521 L140.284157,91.5697922 Z" id="Path-300" transform="translate(105.034002, 144.284959) scale(-1, 1) rotate(-120.000000) translate(-105.034002, -144.284959) "></path>
                <path d="M175.778891,28.3491861 L149.386621,-17.3178664 L106.080785,57.7883245 L175.994027,178.760551 L175.778891,28.3491861 Z" id="Path-400" transform="translate(141.000079, 81.155803) rotate(-240.000000) translate(-141.000079, -81.155803) "></path>
                <path d="M181.581207,62.6461453 L225.092797,137.593767 L276.90226,137.593767 L320.601623,62.6461453 L181.581207,62.6461453 Z" id="Path-500"></path>
                <path d="M396.966974,28.917549 L370.062868,-17.6351436 L326.822244,57.6911226 L397.112675,179.316008 L396.966974,28.917549 Z" id="Path-600" transform="translate(361.929860, 81.273314) scale(-1, 1) rotate(-240.000000) translate(-361.929860, -81.273314) "></path>
                <path d="M433.517276,91.2613628 L406.834995,45.4092281 L363.202213,120.907871 L433.404749,242.493232 L433.517276,91.2613628 Z" id="Path-700" transform="translate(398.321081, 144.384645) rotate(-120.000000) translate(-398.321081, -144.384645) "></path>
                <path d="M258.913368,191.503305 L302.771138,267.185378 L351.672183,267.271422 L395.440277,191.538648 L258.913368,191.503305 Z" id="Path-800" transform="translate(327.176103, 229.387505) scale(-1, 1) rotate(240.000000) translate(-327.176103, -229.387505) "></path>
                <path d="M323.779032,282.117441 L296.930714,234.630647 L253.816034,310.139929 L323.779032,431.777127 L323.779032,282.117441 Z" id="Path-900" transform="translate(288.759390, 333.633890) scale(-1, 1) translate(-288.759390, -333.633890) "></path>
            </g>
        </g>
    </g>
</svg>