<svg width="133" height="30" viewBox="0 0 133 30" fill="none" xmlns="http://www.w3.org/2000/svg">
  <g fill="none" fillRule="evenodd" stroke="none" strokeWidth="1">
        <g fill="#F6FF00" stroke="#000" transform="translate(-53 -18)">
          <g>
            <path d="M591.247 850.113L471.83 643.97l-49.712 85.915 169.128 292.312V850.113z"></path>
            <path d="M470.136 641.183L354.083 439.412h-99.788l166.343 287.78 49.498-86.01z"></path>
            <path
              d="M289.574 330.22L171.862 125.934l-49.43 85.528 167.32 288.639-.178-169.883z"
              transform="scale(1 -1) rotate(60 748.965 0)"
            ></path>
            <path d="M87.927 145.002l146.954 84.076h234.926l-47.771-84.134-334.109.058z"></path>
            <path d="M425.289 144.93l49.143 83.616 235.456.649 49.72-84.286-334.319.021z"></path>
            <path
              d="M976.224 184.31L858.092-20.095l-48.1 84.35 166.31 287.769-.078-167.714z"
              transform="scale(1 -1) rotate(-60 604.905 0)"
            ></path>
            <path
              d="M1062.699 327.119L945.327 124.146l-50.482 87.35L1062.5 501.274l.198-174.155z"
              transform="rotate(-120 978.733 313.14)"
            ></path>
            <path d="M713.986 639.497l50.73 87.643 166.56-287.817-101.59.112-115.7 200.062z"></path>
            <path
              d="M763.116 849L644.787 642.105l-50.744 88.267 169.073 292.571V849z"
              transform="matrix(-1 0 0 1 1357.082 0)"
            ></path>
          </g>
          <g transform="translate(239 232)">
            <path d="M353.002 457.727l-73.038-126.321-44.398 77.252L353.002 611.82V457.727z"></path>
            <path d="M278.55 328.69l-69.903-120.8h-88.806L233.79 405.74l44.76-77.05z"></path>
            <path d="M206.989 205.031L135.084 80.885 1.791 4.525 118.216 205.86l88.773-.829z"></path>
            <path d="M5.318 1.967l131.06 76.355 143.023-.005-45.015-77.222-229.068.872z"></path>
            <path d="M283 78.238l142.223-.046 44.533-76.931H238.194L283 78.238z"></path>
            <path d="M428.666 78.212l143.69-.146L704.78 1.442h-231.55l-44.563 76.77z"></path>
            <path d="M573.59 80.64l-72.05 124.527 88.153-.205L705.801 5.326l-132.21 75.315z"></path>
            <path d="M430.168 328.687l43.864 76.217 114.02-197.033-88.079-.095-69.805 120.91z"></path>
            <path
              d="M472.554 457.46l-71.929-126.013-44.086 76.302 116.015 200.518V457.46z"
              transform="matrix(-1 0 0 1 829.016 0)"
            ></path>
          </g>
          <g transform="translate(340 251)">
            <path d="M250.236 282.277l-27.613-47.584L179.3 310.07l70.936 122.2V282.277z"></path>
            <path
              d="M107.975 191.503l43.892 75.926 48.816.019 43.732-75.67-136.44-.275z"
              transform="rotate(-120 176.194 229.475)"
            ></path>
            <path
              d="M140.284 91.57l-26.811-46.287-43.612 75.463 70.204 121.677.22-150.853z"
              transform="scale(1 -1) rotate(60 354.943 0)"
            ></path>
            <path
              d="M175.779 28.35l-26.392-45.668-43.306 75.106 69.913 120.973-.215-150.412z"
              transform="rotate(120 141 81.156)"
            ></path>
            <path d="M181.581 62.646l43.512 74.948h51.81l43.699-74.948h-139.02z"></path>
            <path
              d="M396.967 28.918l-26.904-46.553-43.24 75.326 70.29 121.625-.146-150.398z"
              transform="scale(1 -1) rotate(-60 221.16 0)"
            ></path>
            <path
              d="M433.517 91.261L406.835 45.41l-43.633 75.499 70.203 121.585.112-151.232z"
              transform="rotate(-120 398.321 144.385)"
            ></path>
            <path
              d="M258.913 191.503l43.858 75.682 48.901.086 43.768-75.732-136.527-.036z"
              transform="scale(1 -1) rotate(60 724.487 0)"
            ></path>
            <path
              d="M323.779 282.117l-26.848-47.486-43.115 75.509 69.963 121.637v-149.66z"
              transform="matrix(-1 0 0 1 577.519 0)"
            ></path>
          </g>
        </g>
      </g>
</svg>
